<svg xmlns="http://www.w3.org/2000/svg" viewBox="179 0 46 29.98">
  <path fill="#0000D2" d="M210.62,8.41c3.97,0,7.19,3.23,7.19,7.19s-3.23,7.19-7.19,7.19-7.19-3.23-7.19-7.19,3.23-7.19,7.19-7.19M210.62,1.22c-7.94,0-14.38,6.44-14.38,14.38s6.44,14.38,14.38,14.38,14.38-6.44,14.38-14.38-6.44-14.38-14.38-14.38h0Z"/>
  <path fill="#0000D2" d="M188.4,11.03h0l-6.78,15.22,7.63,3.4,3.38-7.59c1.88-4.21-.02-9.15-4.23-11.03Z"/>
  <path fill="#0000D2" d="M184.17,0c-1.88,4.21.02,9.15,4.23,11.03l3.4-7.63-7.63-3.4Z"/>
</svg>
